<?xml version="1.1" encoding="UTF-8" standalone="no"?>
<svg width="500px" height="869px" xmlns="http://www.w3.org/2000/svg" version="1.1">
    <title>Стрелке (Strelka)</title>
    <description>Artist: Naia Smith</description>
    <title>Doggie 7</title>
    <description>Created with Sketch (http://www.bohemiancoding.com/sketch)</description>
    <defs></defs>
    <g fill="none" id="Main Page">
        <g fill="none" id="Doggie">
            <g fill="none" id="Body">
                <path id="Forequarters" d="M222,310 C222,310 303,270 328,265 C353,259 354,259 354,259 C354,259 377,256 394,256 C411,256 432,263 438,277 C444,291 435,307 419,319 C403,330 336,377 336,377 C336,377 314,417 314,463 C314,508 314,501 321,532 C328,562 329,589 329,611 C329,632 324,694 320,714 C310,737 326,756 314,780 C309,789 296,776 300,779 C303,781 289,783 277,776 C266,769 250,771 256,707 C263,643 261,634 261,611" stroke="rgb(0,0,0)" stroke-width="3" fill="none"></path>
                <path id="Forequarters decoration" d="" stroke="rgb(0,0,0)" stroke-width="3" fill="none"></path>
                <path id="Hindquarters" d="M195,639 C201,653 218,686 218,719 C222,743 251,719 258,770 C251,786 212,770 126,729 C90,716 72,720 50,703 C0,658 2,554 16,523 C31,492 9,631 73,642 C73,615 142,518 200,493 C209,486 223,455 233,434 C246,404 254,381 251,366 C247,342 259,426 195,470 C181,477 205,399 212,387 C227,366 201,327 223,309" stroke="rgb(0,0,0)" stroke-width="3" fill="none"></path>
                <path id="Hindquarters decoration" d="" stroke="rgb(0,0,0)" stroke-width="3" fill="none"></path>
                <path id="Haunch" d="M118,627 C134,622 177,598 222,675" stroke="rgb(0,0,0)" stroke-width="3" fill="none"></path>
                <path id="Haunch decoration" d="" stroke="rgb(0,0,0)" stroke-width="3" fill="none"></path>
                <path id="Second Leg" d="M300,776 C295,783 313,771 289,742 C305,709 312,643 312,626 C320,596 312,569 320,529" stroke="rgb(0,0,0)" stroke-width="3" fill="none"></path>
                <path id="Second Leg decoration" d="" stroke="rgb(0,0,0)" stroke-width="3" fill="none"></path>
                <path id="Nose" d="M422,296 C432,296 441,290 441,283 C441,275 432,270 422,270 C412,270 404,275 404,283 C404,290 412,296 422,296" stroke="rgb(0,0,0)" stroke-width="1" fill="rgb(28,28,28)"></path>
                <path id="Nose decoration" d="" stroke="rgb(0,0,0)" stroke-width="1" fill="rgb(28,28,28)"></path>
                <path id="Eye" d="M308,329 C305,330 310,326 310,321 C302,318 306,317 300,313 C294,308 300,320 303,320 C305,320 305,327 305,327 C305,327 310,328 308,329" stroke="rgb(0,0,0)" stroke-width="1" fill="rgb(19,19,19)"></path>
                <path id="Eye decoration" d="" stroke="rgb(0,0,0)" stroke-width="1" fill="rgb(19,19,19)"></path>
            </g>
            <path id="Collar" d="M202,491 C202,491 231,506 274,506 C318,506 317,512 317,512 L314,475 C314,475 240,478 216,468 C211,478 202,491 202,491" stroke="rgb(0,0,0)" stroke-width="1" fill="rgb(183,14,1)"></path>
            <path id="Collar decoration" d="" stroke="rgb(0,0,0)" stroke-width="1" fill="rgb(183,14,1)"></path>
            <g fill="none" id="Helmet">
                <path id="Tipguard" d="M213,22 C216,22 219,19 219,16 C219,12 216,10 213,10 C209,10 207,12 207,16 C207,19 209,22 213,22" stroke="rgb(0,0,0)" stroke-width="1" fill="none"></path>
                <path id="Tipguard decoration" d="" stroke="rgb(0,0,0)" stroke-width="1" fill="none"></path>
                <path id="A Ring 1" d="M255,92 C263,88 267,82 263,79 C259,75 250,75 241,80 C233,84 229,90 233,93 C237,97 246,96 255,92" stroke="rgb(0,0,0)" stroke-width="2" fill="none"></path>
                <path id="A Ring 1 decoration" d="" stroke="rgb(0,0,0)" stroke-width="2" fill="none"></path>
                <path id="A Ring 4" d="M254,106 C260,103 263,98 261,94 C259,89 253,89 247,91 C241,94 238,100 240,104 C242,108 249,109 254,106" stroke="rgb(0,0,0)" stroke-width="2" fill="none"></path>
                <path id="A Ring 4 decoration" d="" stroke="rgb(0,0,0)" stroke-width="2" fill="none"></path>
                <path id="A Ring 3" d="M247,80 C253,77 256,71 253,68 C250,65 243,65 236,68 C230,72 227,77 230,80 C233,83 240,83 247,80" stroke="rgb(0,0,0)" stroke-width="2" fill="none"></path>
                <path id="A Ring 3 decoration" d="" stroke="rgb(0,0,0)" stroke-width="2" fill="none"></path>
                <path id="A Ring 2" d="M236,65 C242,63 245,57 243,53 C242,49 235,48 230,50 C224,53 220,58 222,62 C224,66 230,68 236,65" stroke="rgb(0,0,0)" stroke-width="2" fill="none"></path>
                <path id="A Ring 2 decoration" d="" stroke="rgb(0,0,0)" stroke-width="2" fill="none"></path>
                <path id="A Ring 1" d="M225,43 C231,41 234,35 233,31 C231,27 225,26 219,28 C213,31 210,36 211,40 C213,44 219,46 225,43" stroke="rgb(0,0,0)" stroke-width="2" fill="none"></path>
                <path id="A Ring 1 decoration" d="" stroke="rgb(0,0,0)" stroke-width="2" fill="none"></path>
                <path id="Antenna Port" d="M283,189 C294,186 301,178 299,171 C296,164 286,160 274,163 C263,165 256,173 258,180 C261,188 271,191 283,189" stroke="rgb(151,204,210)" stroke-width="1" fill="none"></path>
                <path id="Antenna Port decoration" d="" stroke="rgb(151,204,210)" stroke-width="1" fill="none"></path>
                <path id="Antenna" d="M214,16 C224,41 271,114 277,188" stroke="rgb(0,0,0)" stroke-width="3" fill="none"></path>
                <path id="Antenna decoration" d="" stroke="rgb(0,0,0)" stroke-width="3" fill="none"></path>
                <path id="Glass" d="M133,341 C133,336 116,240 250,170 C413,113 442,173 469,201 C478,210 520,285 469,379 C420,476 334,476 300,476 C265,476 186,486 171,469 C141,457 133,364 133,341" stroke="rgb(0,0,0)" stroke-width="1" fill="rgba(58,159,170,0.2)"></path>
                <path id="Glass decoration" d="" stroke="rgb(0,0,0)" stroke-width="1" fill="rgb(58,159,170)"></path>
            </g>
        </g>
        <text x="517" y="827" font-family="M+ 1p black" font-size="64" fill="rgb(0,0,0)" id="Стрелке">Стрелке</text>
    </g>
</svg>